<svg width="16" height="16" viewBox="0 0 16 16" fill="none" xmlns="http://www.w3.org/2000/svg">
<g clip-path="url(#clip0_461_755)">
<mask id="mask0_461_755" style="mask-type:luminance" maskUnits="userSpaceOnUse" x="0" y="0" width="16" height="16">
<path d="M16 0H0V16H16V0Z" fill="white"/>
</mask>
<g mask="url(#mask0_461_755)">
<path d="M5.35161 12.8832C5.35161 12.9493 5.27742 13.0023 5.18387 13.0023C5.07742 13.0122 5.00323 12.9593 5.00323 12.8832C5.00323 12.817 5.07742 12.7641 5.17097 12.7641C5.26774 12.7541 5.35161 12.8071 5.35161 12.8832ZM4.34839 12.7343C4.32581 12.8005 4.39032 12.8766 4.4871 12.8964C4.57097 12.9295 4.66774 12.8964 4.6871 12.8302C4.70645 12.7641 4.64516 12.688 4.54839 12.6582C4.46452 12.635 4.37097 12.6681 4.34839 12.7343ZM5.77419 12.6781C5.68064 12.7012 5.61613 12.7641 5.62581 12.8402C5.63548 12.9063 5.71935 12.9493 5.81613 12.9262C5.90968 12.903 5.97419 12.8402 5.96452 12.774C5.95484 12.7111 5.86774 12.6681 5.77419 12.6781ZM7.89677 0C3.42258 0 0 3.48382 0 8.07266C0 11.7418 2.25161 14.8815 5.46774 15.9865C5.88064 16.0626 6.02581 15.8012 6.02581 15.5862C6.02581 15.3811 6.01613 14.2496 6.01613 13.5548C6.01613 13.5548 3.75806 14.0511 3.28387 12.5689C3.28387 12.5689 2.91613 11.6061 2.3871 11.358C2.3871 11.358 1.64839 10.8385 2.43871 10.8485C2.43871 10.8485 3.24194 10.9146 3.68387 11.7021C4.39032 12.9791 5.57419 12.6119 6.03548 12.3935C6.10968 11.8642 6.31936 11.4969 6.55161 11.2786C4.74839 11.0734 2.92903 10.8055 2.92903 7.62271C2.92903 6.71288 3.17419 6.25631 3.69032 5.67402C3.60645 5.45897 3.33226 4.5723 3.77419 3.42757C4.44839 3.21252 6 4.32086 6 4.32086C6.64516 4.13559 7.33871 4.03964 8.02581 4.03964C8.7129 4.03964 9.40645 4.13559 10.0516 4.32086C10.0516 4.32086 11.6032 3.20921 12.2774 3.42757C12.7194 4.57561 12.4452 5.45897 12.3613 5.67402C12.8774 6.25962 13.1935 6.71619 13.1935 7.62271C13.1935 10.8154 11.2935 11.0701 9.49032 11.2786C9.7871 11.5399 10.0387 12.0362 10.0387 12.8137C10.0387 13.9287 10.029 15.3083 10.029 15.5796C10.029 15.7946 10.1774 16.056 10.5871 15.9799C13.8129 14.8815 16 11.7418 16 8.07266C16 3.48382 12.371 0 7.89677 0ZM3.13548 11.4109C3.09355 11.444 3.10323 11.5201 3.15806 11.5829C3.20968 11.6359 3.28387 11.659 3.32581 11.616C3.36774 11.5829 3.35806 11.5069 3.30323 11.444C3.25161 11.3911 3.17742 11.3679 3.13548 11.4109ZM2.7871 11.1429C2.76452 11.1859 2.79677 11.2389 2.86129 11.272C2.9129 11.305 2.97742 11.2951 3 11.2488C3.02258 11.2058 2.99032 11.1528 2.92581 11.1198C2.86129 11.0999 2.80968 11.1098 2.7871 11.1429ZM3.83226 12.3207C3.78065 12.3637 3.8 12.463 3.87419 12.5259C3.94839 12.602 4.04194 12.6119 4.08387 12.5589C4.12581 12.5159 4.10645 12.4167 4.04194 12.3538C3.97097 12.2777 3.87419 12.2678 3.83226 12.3207ZM3.46452 11.8344C3.4129 11.8675 3.4129 11.9535 3.46452 12.0296C3.51613 12.1057 3.60323 12.1388 3.64516 12.1057C3.69677 12.0627 3.69677 11.9767 3.64516 11.9006C3.6 11.8245 3.51613 11.7914 3.46452 11.8344Z" fill="white"/>
</g>
</g>
<defs>
<clipPath id="clip0_461_755">
<rect width="16" height="16" fill="white"/>
</clipPath>
</defs>
</svg>
