<svg width="20" height="20" viewBox="0 0 20 20" fill="none" xmlns="http://www.w3.org/2000/svg">
<g clip-path="url(#clip0_463_761)">
<mask id="mask0_463_761" style="mask-type:luminance" maskUnits="userSpaceOnUse" x="0" y="0" width="20" height="20">
<path d="M20 0H0V20H20V0Z" fill="white"/>
</mask>
<g mask="url(#mask0_463_761)">
<path d="M6.68951 16.104C6.68951 16.1866 6.59677 16.2529 6.47984 16.2529C6.34677 16.2653 6.25404 16.1991 6.25404 16.104C6.25404 16.0212 6.34677 15.9551 6.46371 15.9551C6.58467 15.9426 6.68951 16.0089 6.68951 16.104ZM5.43549 15.9179C5.40726 16.0006 5.4879 16.0958 5.60888 16.1205C5.71371 16.1619 5.83467 16.1205 5.85887 16.0378C5.88306 15.9551 5.80645 15.86 5.68549 15.8228C5.58065 15.7938 5.46371 15.8351 5.43549 15.9179ZM7.21774 15.8476C7.1008 15.8765 7.02016 15.9551 7.03226 16.0503C7.04435 16.1329 7.14919 16.1866 7.27016 16.1577C7.3871 16.1287 7.46774 16.0503 7.45565 15.9675C7.44355 15.8889 7.33467 15.8351 7.21774 15.8476ZM9.87096 0C4.27822 0 0 4.35478 0 10.0908C0 14.6773 2.81451 18.6019 6.83468 19.9831C7.3508 20.0782 7.53226 19.7515 7.53226 19.4827C7.53226 19.2264 7.52016 17.812 7.52016 16.9435C7.52016 16.9435 4.69757 17.5639 4.10484 15.7111C4.10484 15.7111 3.64516 14.5076 2.98387 14.1975C2.98387 14.1975 2.06049 13.5481 3.04839 13.5606C3.04839 13.5606 4.05243 13.6432 4.60484 14.6276C5.4879 16.2239 6.96774 15.7649 7.54435 15.4919C7.6371 14.8303 7.8992 14.3711 8.18951 14.0982C5.93549 13.8417 3.66129 13.5069 3.66129 9.52839C3.66129 8.3911 3.96774 7.82039 4.6129 7.09252C4.50806 6.82371 4.16532 5.71538 4.71774 4.28446C5.56049 4.01565 7.5 5.40107 7.5 5.40107C8.30645 5.16949 9.17339 5.04955 10.0323 5.04955C10.8911 5.04955 11.7581 5.16949 12.5645 5.40107C12.5645 5.40107 14.504 4.01151 15.3468 4.28446C15.8993 5.71951 15.5565 6.82371 15.4516 7.09252C16.0968 7.82452 16.4919 8.39524 16.4919 9.52839C16.4919 13.5193 14.1169 13.8376 11.8629 14.0982C12.2339 14.4249 12.5484 15.0452 12.5484 16.0171C12.5484 17.4109 12.5363 19.1354 12.5363 19.4745C12.5363 19.7433 12.7218 20.07 13.2339 19.9749C17.2661 18.6019 20 14.6773 20 10.0908C20 4.35478 15.4637 0 9.87096 0ZM3.91935 14.2636C3.86694 14.305 3.87904 14.4001 3.94758 14.4786C4.0121 14.5449 4.10484 14.5738 4.15726 14.52C4.20967 14.4786 4.19758 14.3836 4.12904 14.305C4.06451 14.2389 3.97177 14.2099 3.91935 14.2636ZM3.48388 13.9286C3.45565 13.9824 3.49596 14.0486 3.57661 14.09C3.64112 14.1313 3.72178 14.1189 3.75 14.061C3.77822 14.0073 3.7379 13.941 3.65726 13.8997C3.57661 13.8749 3.5121 13.8873 3.48388 13.9286ZM4.79032 15.4009C4.72581 15.4546 4.75 15.5787 4.84274 15.6574C4.93549 15.7525 5.05242 15.7649 5.10484 15.6986C5.15726 15.6449 5.13306 15.5209 5.05243 15.4422C4.96371 15.3471 4.84274 15.3347 4.79032 15.4009ZM4.33065 14.793C4.26612 14.8344 4.26612 14.9419 4.33065 15.037C4.39516 15.1321 4.50404 15.1735 4.55645 15.1321C4.62096 15.0784 4.62096 14.9709 4.55645 14.8758C4.5 14.7806 4.39516 14.7393 4.33065 14.793Z" fill="black"/>
</g>
</g>
<defs>
<clipPath id="clip0_463_761">
<rect width="20" height="20" fill="white"/>
</clipPath>
</defs>
</svg>
