<?xml version="1.0" encoding="UTF-8" standalone="no"?>
<svg
   xmlns:dc="http://purl.org/dc/elements/1.1/"
   xmlns:cc="http://creativecommons.org/ns#"
   xmlns:rdf="http://www.w3.org/1999/02/22-rdf-syntax-ns#"
   xmlns:svg="http://www.w3.org/2000/svg"
   xmlns="http://www.w3.org/2000/svg"
   xmlns:sodipodi="http://sodipodi.sourceforge.net/DTD/sodipodi-0.dtd"
   xmlns:inkscape="http://www.inkscape.org/namespaces/inkscape"
   version="1.1"
   id="svg2"
   xml:space="preserve"
   width="1440"
   height="448.98666"
   viewBox="0 0 1440 448.98666"
   sodipodi:docname="Metaflow_Logo_Horizontal_OneColor_White_RGB.eps"><metadata
     id="metadata8"><rdf:RDF><cc:Work
         rdf:about=""><dc:format>image/svg+xml</dc:format><dc:type
           rdf:resource="http://purl.org/dc/dcmitype/StillImage" /></cc:Work></rdf:RDF></metadata><defs
     id="defs6" /><sodipodi:namedview
     pagecolor="#ffffff"
     bordercolor="#666666"
     borderopacity="1"
     objecttolerance="10"
     gridtolerance="10"
     guidetolerance="10"
     inkscape:pageopacity="0"
     inkscape:pageshadow="2"
     inkscape:window-width="640"
     inkscape:window-height="480"
     id="namedview4" /><g
     id="g10"
     inkscape:groupmode="layer"
     inkscape:label="ink_ext_XXXXXX"
     transform="matrix(1.3333333,0,0,-1.3333333,0,448.98667)"><g
       id="g12"
       transform="scale(0.1)"><path
         d="m 3169.21,1774.79 c -4.75,44.8 -13.04,88.19 -24.85,130 -11.8,41.82 -27.1,82.08 -45.89,120.6 -40.71,83.49 -96.62,156.83 -166.48,218.49 -9.98,8.8 -20.25,17.38 -30.79,25.71 -59.34,46.85 -127.08,84.96 -199.36,113 -30.97,12.03 -62.78,22.2 -95.12,30.43 -64.68,16.44 -131.48,25.07 -197.98,25.07 v 0 0 c -61.88,0 -126.11,-5.75 -192.56,-17.22 -16.62,-2.87 -33.37,-6.1 -50.26,-9.68 -33.78,-7.16 -68.1,-15.75 -102.96,-25.76 -87.15,-25.03 -177.63,-58.95 -271.21,-101.66 -74.85,-34.18 -151.68,-74 -230.37,-119.4 -152.31,-87.9 -274.7,-175.96 -338.48,-224.19 -2.9,-2.18 -5.67,-4.29 -8.33,-6.32 -23.88,-18.21 -37.74,-29.44 -39.6,-30.95 L 934.797,1707.45 c -3.578,-2.91 -5.414,-7.09 -5.488,-11.29 -0.039,-2.1 0.359,-4.21 1.207,-6.17 0.847,-1.97 2.132,-3.79 3.871,-5.3 l 112.533,-98.54 c 4.08,-3.58 9.64,-4.57 14.55,-2.92 1.63,0.55 3.2,1.39 4.6,2.52 l 98.9,79.63 122.83,98.89 c 1.93,1.58 17.66,14.33 44.76,34.8 37.94,28.66 98.17,72.46 174.04,121.92 43.35,28.26 91.81,58.37 144.12,88.57 287.23,165.75 542.26,249.79 758.02,249.79 4.23,0 8.47,-0.18 12.7,-0.27 4.42,-0.1 8.83,-0.1 13.25,-0.28 32.31,-1.39 64.57,-5.33 96.32,-11.67 47.61,-9.52 94.07,-24.46 137.83,-44.27 43.75,-19.82 84.8,-44.51 121.59,-73.57 6.59,-5.19 12.94,-10.59 19.23,-16.04 8.78,-7.61 17.36,-15.38 25.56,-23.46 14.07,-13.86 27.26,-28.43 39.57,-43.65 18.47,-22.83 34.94,-47.16 49.32,-72.89 4.8,-8.58 9.37,-17.31 13.7,-26.2 2.62,-5.37 4.93,-10.91 7.37,-16.39 6.44,-14.41 12.47,-29.05 17.67,-44.14 3.58,-10.41 6.87,-20.98 9.86,-31.69 14.96,-53.56 22.5,-110.91 22.5,-171.42 0,-57.52 -6.98,-112.09 -20.49,-163.35 -9.24,-35.04 -21.44,-68.59 -36.91,-100.3 -4.33,-8.88 -8.9,-17.61 -13.7,-26.2 -19.18,-34.3 -42.05,-66.12 -68.44,-95.22 -19.79,-21.84 -41.56,-42.14 -65.23,-60.82 -15.6,-12.33 -32.04,-23.75 -49.05,-34.46 -8.95,-5.64 -18.08,-11.05 -27.38,-16.23 -10.08,-5.61 -20.28,-11.05 -30.72,-16.11 -84.37,-40.86 -179.75,-63.26 -274.55,-63.26 -215.76,0 -470.79,84.04 -758.02,249.8 -16.03,9.25 -37.03,21.98 -58.34,35.09 -12.78,7.87 -25.67,15.88 -37.66,23.38 -31.97,19.98 -57.53,36.27 -57.53,36.27 50.48,47.09 125.35,111.44 218.59,175.62 13.62,9.38 27.72,18.73 42.1,28.04 12.48,8.08 25.14,16.13 38.16,24.08 15.31,9.35 31.07,18.55 47.09,27.62 16.66,9.42 33.69,18.66 51.08,27.67 149.83,77.57 326.04,137.05 514.53,137.05 38.07,0 98.02,-12.24 141.71,-46.74 1.86,-1.47 3.75,-3.03 5.63,-4.65 6.6,-5.64 13.29,-12.26 19.57,-20.4 3.23,-4.18 6.35,-8.76 9.3,-13.82 4.42,-7.57 8.45,-16.2 11.86,-26.12 1.41,-4.11 2.66,-8.53 3.84,-13.09 4.52,-17.5 7.29,-38.4 7.29,-63.85 0,-30.83 -4.03,-55.05 -10.39,-74.51 -2.46,-7.54 -5.24,-14.44 -8.32,-20.63 -1.37,-2.76 -2.81,-5.41 -4.28,-7.93 -1.88,-3.23 -3.86,-6.2 -5.87,-9.06 -3.46,-4.94 -7.08,-9.36 -10.77,-13.37 -1.7,-1.84 -3.41,-3.6 -5.13,-5.28 -4.25,-4.14 -8.53,-7.85 -12.73,-11.16 -43.69,-34.5 -103.64,-46.75 -141.71,-46.75 -34.58,0 -72.61,4.12 -113.54,12.17 -27.29,5.36 -55.86,12.49 -85.56,21.33 -44.54,13.25 -91.6,30.35 -140.63,51.15 -2.02,0.86 -4.18,1.26 -6.34,1.19 -2.14,-0.06 -4.28,-0.59 -6.23,-1.59 -57.23,-29.04 -110.72,-60.83 -159.67,-93.11 -1.23,-0.8 -2.28,-1.74 -3.16,-2.77 -6.18,-7.19 -4.13,-18.96 5.19,-23.22 l 27.48,-12.53 27.48,-12.53 c 21.61,-9.85 42.92,-19.1 63.9,-27.74 20.99,-8.63 41.66,-16.67 62,-24.08 30.51,-11.14 60.29,-20.88 89.3,-29.25 38.69,-11.15 76.02,-19.86 111.92,-26.08 44.89,-7.77 87.55,-11.68 127.86,-11.68 v 0 0 c 4.24,0 9.8,0.1 16.48,0.42 3.34,0.16 6.96,0.38 10.83,0.68 50.38,3.78 143.81,19.88 225.16,84.1 3.57,2.81 6.79,5.87 10.2,8.79 11.14,9.53 21.71,19.46 31.23,30.13 1.37,1.52 2.57,3.14 3.91,4.69 35.76,41.63 59.75,91.46 71.51,149.24 5.69,27.98 8.62,57.75 8.62,89.38 0,121.53 -42.21,216.49 -125.47,282.21 -61.4,48.49 -129.62,69.49 -181.07,78.53 -11.91,2.09 -22.93,3.57 -32.74,4.57 -16.93,1.72 -30.35,2.1 -38.66,2.1 v 0 0 c -144.87,0 -294.24,-29.51 -443.98,-87.73 -44.23,-17.19 -88.54,-36.9 -132.75,-59.03 -14.73,-7.37 -29.46,-15.02 -44.16,-22.93 -23.45,-12.61 -46.82,-26.07 -70.16,-40.01 -14.46,-8.65 -28.89,-17.54 -43.3,-26.69 -20.66,-13.11 -41.28,-26.56 -61.78,-40.7 -44.93,-30.99 -85.88,-61.94 -122.4,-91.31 -12.17,-9.8 -23.85,-19.4 -35.02,-28.79 -44.66,-37.53 -81.13,-71.35 -108.28,-97.79 -34.57,-33.68 -54.01,-55.4 -55.97,-57.61 l -3.35,-3.76 -37.95,-42.47 -13.9,-15.54 c -1.47,-1.66 -2.5,-3.54 -3.12,-5.51 -1.83,-5.92 0.16,-12.67 5.57,-16.54 l 63.93,-45.7 2.05,-1.45 2.06,-1.44 c 21.81,-15.38 43.78,-30.5 65.87,-45.3 15.63,-10.49 31.31,-20.83 47.04,-31.01 25.47,-16.49 51.07,-32.44 76.71,-48.07 11.87,-7.22 23.74,-14.35 35.62,-21.38 9.98,-5.9 19.94,-11.86 29.91,-17.61 137.7,-79.47 269.73,-141.8 395.41,-186.78 17.96,-6.41 35.78,-12.49 53.48,-18.201 35.39,-11.438 70.25,-21.449 104.57,-30.039 34.33,-8.578 68.11,-15.75 101.34,-21.489 66.45,-11.472 130.68,-17.222 192.56,-17.222 v 0 0 c 66.5,0 133.3,8.633 197.98,25.082 64.68,16.429 127.24,40.687 185.24,71.909 38.68,20.82 75.33,44.75 109.24,71.51 31.63,24.98 60.75,52.15 87.22,81.38 17.66,19.49 34.14,39.9 49.43,61.18 7.64,10.65 14.99,21.52 22.03,32.6 14.09,22.16 26.96,45.19 38.59,69.04 37.85,77.61 61.57,162.29 70.92,252.61 3.02,29.22 4.57,59.01 4.57,89.38 0,31.05 -1.59,61.53 -4.75,91.38"
         style="fill:#146ee6;fill-opacity:1;fill-rule:nonzero;stroke:none"
         id="path14" /><path
         d="m 8513.2,1684.64 c -57.57,-362.14 -157.08,-468.85 -462.87,-468.85 -12.55,0 -24.62,0.23 -36.38,0.6 -1.43,-0.2 -2.73,-0.6 -4.36,-0.6 h -700.34 c -11.99,0 -16.79,5.99 -15.59,19.19 l 141.5,890.92 c 1.19,12.04 8.39,18.02 20.38,18.02 h 152.29 c 11.98,0 16.78,-5.98 15.58,-18.02 L 7505.9,1380.08 h 49.66 173.49 342.75 v 0.14 c 1.61,-0.07 3.19,-0.14 4.92,-0.14 41.37,0 75.09,4.5 102.99,14.88 13.94,5.19 26.44,11.84 37.7,20.15 5.63,4.15 10.95,8.73 16,13.71 45.41,44.96 68.21,124.98 89.12,255.82 0.06,0.34 0.09,0.63 0.15,0.95 3.05,19.4 5.59,37.76 7.93,55.72 0.73,5.63 1.42,11.21 2.08,16.71 0.74,6.16 1.23,11.87 1.87,17.86 16.11,162.95 -19.03,216.97 -160.71,216.97 -10.35,0 -20.21,-0.29 -29.64,-0.88 -131.93,-8.32 -176.59,-76.91 -210.29,-265.14 -2.41,-13.45 -4.77,-27.51 -7.09,-42.19 -2.69,-16.81 -4.97,-32.55 -7,-47.7 -0.59,-4.3 -1.04,-8.3 -1.57,-12.45 -1.38,-11.05 -2.57,-21.68 -3.55,-31.84 -0.38,-3.98 -0.74,-7.9 -1.06,-11.75 -0.9,-10.95 -1.53,-21.36 -1.88,-31.27 -0.08,-2.03 -0.22,-4.23 -0.27,-6.22 -0.58,-24.12 0.7,-45.04 4.02,-63.14 0.28,-1.59 0.65,-3.07 0.96,-4.64 1.57,-7.46 3.5,-14.42 5.84,-20.91 0.45,-1.27 0.89,-2.57 1.38,-3.8 6,-15.14 14.25,-27.6 25.24,-37.52 3,-2.69 6.23,-5.17 9.62,-7.5 h -234.89 c -0.43,2.5 -0.93,4.92 -1.31,7.49 h -0.01 c 0,0.03 0,0.08 -0.01,0.11 -0.44,2.9 -0.67,6.06 -1.05,9.01 -1.15,9.24 -2.03,18.87 -2.64,28.85 -0.26,4.16 -0.55,8.28 -0.72,12.54 -0.46,12.46 -0.58,25.43 -0.3,39.02 0.08,4.03 0.29,8.28 0.44,12.42 0.44,12.33 1.15,25.11 2.16,38.35 0.25,3.31 0.42,6.5 0.7,9.89 1.37,16.15 3.21,33.15 5.36,50.69 0.52,4.26 1.09,8.64 1.65,12.98 2.41,18.46 5.06,37.4 8.24,57.39 3.59,22.79 7.36,44.57 11.32,65.38 52.21,274.1 139.9,380.59 354.48,402.53 29.83,3.04 62.05,4.52 97.04,4.52 0.01,0 0.01,0 0.01,0 210.22,0 307.08,-51 328.39,-201.33 9.68,-68.31 3.76,-157.17 -14.22,-271.1 z m 1356.34,440.09 -271,-772.23 c -34.51,-96.23 -58.1,-128.5 -124.24,-138.51 -21.2,-3.22 -46.68,-4.18 -78.4,-4.18 -149.89,0 -163.09,15.62 -172.67,142.69 l -35.98,453.28 v 0.01 L 9008.59,1352.5 c -36.73,-90.54 -57.27,-124.37 -119.67,-136.42 v -0.01 c -25.19,-4.84 -57.01,-6.27 -99.76,-6.27 -130.71,0 -152.29,15.63 -155.89,142.69 l -27.58,772.23 c 0,14.38 6,19.2 19.19,19.2 h 158.28 c 10.79,0 13.19,-4.82 14.39,-19.2 l 20.71,-692.35 v 0.01 c 1.59,-25.19 6.68,-30.69 21.26,-30.69 19.18,0 23.98,5.98 35.97,35.97 l 261.4,654.67 c 6,14.44 16.79,19.19 27.58,19.19 h 141.49 c 8.54,0 16.14,-3.2 19.61,-11.6 0.92,-2.21 1.73,-4.56 1.98,-7.59 l 29.1,-353.04 24.86,-301.63 c 2.4,-29.99 5.99,-35.97 25.18,-35.97 15.59,0 21.58,5.98 32.38,35.97 l 238.62,687.07 c 4.79,14.38 8.39,19.19 19.18,19.19 h 158.28 c 13.19,0 17.99,-4.81 14.39,-19.19 z m -5313.15,1.17 -55.16,-890.91 c 0,-13.22 -8.39,-19.2 -20.38,-19.2 h -152.28 c -12,0 -15.6,5.98 -15.6,19.2 l 39.58,575.54 -26.22,-47.36 -244.19,-441.04 -32.97,-59.54 c -6,-11.99 -15.58,-17.97 -27.57,-17.97 h -113.92 c -10.79,0 -17.99,5.98 -22.77,17.97 l -127.09,547.84 -0.03,0.11 -145.09,-575.55 c -1.27,-6.99 -3.65,-11.82 -7.27,-14.96 -3.24,-2.79 -7.47,-4.23 -13.11,-4.23 h -152.28 c -11.99,0 -18,5.97 -15.59,19.19 l 227.82,889.74 c 2.41,11.98 6.01,19.19 17.99,19.19 h 145.1 c 26.31,0 41.21,-4.78 50.77,-19.62 4.38,-6.79 7.75,-15.49 10.38,-27.15 l 114.92,-513.49 15.78,-70.46 315.36,583.95 c 21.59,38.38 37.17,47.95 75.54,47.95 h 145.09 c 9.87,0 12.93,-13.84 12.93,-13.84 0,0 0.26,-3.46 0.26,-5.36 z m 1389.98,0.01 -20.39,-128.31 c -1.2,-11.97 -9.59,-17.95 -21.58,-17.95 h -250.61 l -27.49,-174.23 -90.03,-570.43 c -2.39,-13.22 -9.58,-19.19 -21.58,-19.19 H 5362.4 c -11.98,0 -16.78,5.97 -14.39,19.19 l 117.52,744.66 h -190.85 -59.76 -337.41 l -35.96,-226.63 v 0 h 393.31 c 11.99,0 17.98,-5.99 16.79,-18.02 l -20.38,-122.33 c -1.2,-11.96 -9.6,-17.95 -21.58,-17.95 h -393.32 l -3.97,-25.39 -29.6,-189.25 h 430.48 c 11.99,0 16.79,-5.99 15.58,-17.95 l -21.58,-128.31 c -1.21,-12.05 -8.39,-18.02 -20.38,-18.02 h -600.76 c -11.99,0 -16.79,5.97 -15.59,19.19 l 141.49,890.92 c 1.2,12.04 8.39,18.01 20.4,18.01 h 297.75 211.12 58.55 191.6 169.65 269.67 c 11.99,0 16.79,-5.97 15.59,-18.01 z m 1277.65,-392.08 -20.38,-122.32 c -1.2,-11.98 -9.6,-17.96 -21.58,-17.96 h -370.32 -0.2 l -57.57,-358.57 c -1.19,-13.21 -8.39,-19.19 -20.38,-19.19 h -152.28 c -11.99,0 -16.78,5.98 -15.6,19.19 l 141.5,890.92 c 1.2,12.04 8.39,18.02 20.38,18.02 h 631.76 c 11.98,0 17.98,-5.98 16.78,-18.02 l -20.38,-128.3 c -2.41,-11.98 -9.59,-17.96 -21.58,-17.96 h -461.49 l -35.96,-227.86 h 370.52 c 11.98,0 17.99,-5.98 16.78,-17.95 z M 4816.37,1594.71 h 0.06 l -4.03,-25.38 z m 1220.2,45.55 136.7,317.77 c 6.4,15.41 10.47,24.17 15.94,29.11 4.75,4.28 10.54,5.71 20.03,5.71 23.98,0 23.98,-5.99 27.58,-34.82 l 35.97,-317.77 z m 316.08,498.98 c -25.78,9.81 -62.91,11.84 -118.23,11.84 -139.1,0 -165.48,-13.14 -223.03,-143.86 l -335.75,-772.24 c -4.79,-14.38 -1.2,-19.19 11.99,-19.19 h 152.28 c 11.99,0 14.4,4.81 20.39,19.19 l 109.12,249.39 h 320.15 l 29.98,-249.39 c 1.2,-14.38 1.2,-19.19 13.2,-19.19 h 152.28 c 13.19,0 19.18,4.81 19.18,19.19 l -88.73,772.24 c -9.59,80.45 -21.57,116.29 -62.83,132.02"
         style="fill:#146ee6;fill-opacity:1;fill-rule:nonzero;stroke:none"
         id="path16" /></g></g></svg>
