<svg width="1440" height="449" viewBox="0 0 1440 449" fill="none" xmlns="http://www.w3.org/2000/svg">
<path d="M1113.51 223.746C1101.36 300.205 1080.35 322.735 1015.79 322.735C1013.14 322.735 1010.59 322.687 1008.11 322.609C1007.8 322.651 1007.53 322.735 1007.19 322.735H859.32C856.789 322.735 855.775 321.471 856.029 318.684L885.904 130.581C886.155 128.039 887.676 126.776 890.207 126.776H922.36C924.89 126.776 925.903 128.039 925.65 130.581L900.84 288.048H911.325H947.954H1020.32V288.019C1020.66 288.034 1020.99 288.048 1021.36 288.048C1030.09 288.048 1037.21 287.098 1043.1 284.907C1046.05 283.811 1048.69 282.407 1051.06 280.652C1052.25 279.776 1053.37 278.809 1054.44 277.758C1064.03 268.265 1068.84 251.37 1073.26 223.746C1073.27 223.674 1073.28 223.613 1073.29 223.545C1073.93 219.449 1074.47 215.573 1074.96 211.781C1075.12 210.592 1075.26 209.414 1075.4 208.253C1075.56 206.952 1075.66 205.747 1075.8 204.482C1079.2 170.078 1071.78 158.672 1041.87 158.672C1039.68 158.672 1037.6 158.734 1035.61 158.858C1007.75 160.615 998.324 175.096 991.209 214.838C990.7 217.678 990.202 220.646 989.712 223.746C989.144 227.295 988.663 230.618 988.234 233.817C988.109 234.725 988.014 235.569 987.902 236.445C987.611 238.778 987.36 241.023 987.153 243.168C987.073 244.008 986.997 244.836 986.929 245.649C986.739 247.96 986.606 250.158 986.532 252.251C986.515 252.679 986.486 253.144 986.475 253.564C986.353 258.656 986.623 263.073 987.324 266.895C987.383 267.231 987.461 267.543 987.527 267.875C987.858 269.45 988.266 270.919 988.76 272.289C988.855 272.557 988.948 272.832 989.051 273.092C990.318 276.288 992.06 278.919 994.38 281.013C995.013 281.581 995.695 282.105 996.411 282.597H946.818C946.727 282.069 946.622 281.558 946.541 281.015H946.539C946.539 281.009 946.539 280.999 946.537 280.992C946.444 280.38 946.396 279.713 946.316 279.09C946.073 277.139 945.887 275.106 945.758 272.999C945.703 272.12 945.642 271.251 945.606 270.351C945.509 267.72 945.484 264.982 945.543 262.113C945.56 261.262 945.604 260.365 945.636 259.49C945.729 256.887 945.879 254.189 946.092 251.393C946.145 250.695 946.18 250.021 946.24 249.305C946.529 245.896 946.917 242.306 947.371 238.603C947.481 237.704 947.601 236.779 947.72 235.863C948.228 231.965 948.788 227.966 949.459 223.746C950.217 218.934 951.013 214.335 951.849 209.942C962.873 152.07 981.387 129.587 1026.69 124.954C1032.99 124.312 1039.79 124 1047.18 124C1047.18 124 1047.18 124 1047.18 124C1091.57 124 1112.02 134.768 1116.52 166.507C1118.56 180.93 1117.31 199.691 1113.51 223.746ZM1399.88 130.828L1342.67 293.871C1335.38 314.189 1330.4 321.002 1316.43 323.115C1311.96 323.795 1306.58 323.998 1299.88 323.998C1268.23 323.998 1265.45 320.7 1263.42 293.871L1255.83 198.169V198.167L1218.11 293.871C1210.35 312.987 1206.02 320.13 1192.84 322.674V322.676C1187.52 323.698 1180.8 324 1171.78 324C1144.18 324 1139.62 320.7 1138.86 293.873L1133.04 130.83C1133.04 127.794 1134.31 126.776 1137.09 126.776H1170.51C1172.79 126.776 1173.3 127.794 1173.55 130.83L1177.92 277.008V277.006C1178.26 282.324 1179.33 283.486 1182.41 283.486C1186.46 283.486 1187.47 282.223 1190.01 275.891L1245.2 137.669C1246.46 134.62 1248.74 133.617 1251.02 133.617H1280.89C1282.69 133.617 1284.3 134.293 1285.03 136.066C1285.23 136.533 1285.4 137.029 1285.45 137.669L1291.59 212.207L1296.84 275.891C1297.35 282.223 1298.11 283.486 1302.16 283.486C1305.45 283.486 1306.72 282.223 1309 275.891L1359.38 130.828C1360.39 127.792 1361.15 126.776 1363.43 126.776H1396.84C1399.63 126.776 1400.64 127.792 1399.88 130.828ZM278.101 130.581L266.455 318.682C266.455 321.473 264.683 322.735 262.152 322.735H230C227.467 322.735 226.707 321.473 226.707 318.682L235.063 197.166L229.527 207.165L177.971 300.283L171.01 312.854C169.743 315.386 167.72 316.648 165.189 316.648H141.137C138.858 316.648 137.338 315.386 136.329 312.854L109.496 197.187L109.49 197.164L78.8566 318.682C78.5884 320.157 78.0859 321.177 77.3216 321.84C76.6376 322.429 75.7445 322.733 74.5537 322.733H42.4024C39.8709 322.733 38.602 321.473 39.1108 318.682L87.2111 130.828C87.72 128.299 88.48 126.776 91.0094 126.776H121.645C127.2 126.776 130.346 127.786 132.364 130.919C133.289 132.352 134 134.189 134.556 136.651L158.819 245.066L162.151 259.942L228.734 136.651C233.292 128.548 236.581 126.527 244.683 126.527H275.316C277.4 126.527 278.046 129.449 278.046 129.449C278.046 129.449 278.101 130.18 278.101 130.581ZM571.571 130.579L567.266 157.669C567.013 160.197 565.242 161.459 562.71 161.459H509.798L503.994 198.245L484.986 318.682C484.481 321.473 482.963 322.733 480.429 322.733H448.276C445.747 322.733 444.733 321.473 445.238 318.682L470.05 161.459H429.755H417.138H345.9L338.307 209.308H421.348C423.88 209.308 425.144 210.573 424.893 213.113L420.59 238.941C420.337 241.466 418.563 242.731 416.034 242.731H332.991L332.153 248.091L325.903 288.048H416.792C419.323 288.048 420.337 289.313 420.081 291.838L415.525 318.929C415.27 321.473 413.754 322.733 411.222 322.733H284.382C281.85 322.733 280.837 321.473 281.09 318.682L310.964 130.579C311.217 128.037 312.735 126.776 315.271 126.776H378.136H422.71H435.072H475.525H511.344H568.28C570.811 126.776 571.825 128.037 571.571 130.579ZM841.325 213.36L837.023 239.186C836.769 241.715 834.996 242.978 832.466 242.978H754.28H754.237L742.082 318.684C741.831 321.473 740.311 322.735 737.779 322.735H705.628C703.097 322.735 702.085 321.473 702.334 318.684L732.21 130.581C732.463 128.039 733.981 126.776 736.513 126.776H869.898C872.427 126.776 873.694 128.039 873.441 130.581L869.138 157.669C868.629 160.199 867.113 161.461 864.582 161.461H767.146L759.554 209.57H837.783C840.312 209.57 841.581 210.833 841.325 213.36ZM332.991 242.733H333.004L332.153 248.091L332.991 242.733ZM590.616 233.116L619.477 166.024C620.829 162.77 621.688 160.921 622.843 159.878C623.846 158.974 625.068 158.672 627.072 158.672C632.135 158.672 632.135 159.937 632.895 166.024L640.489 233.116H590.616ZM657.35 127.765C651.907 125.693 644.068 125.265 632.388 125.265C603.02 125.265 597.45 128.039 585.299 155.638L514.411 318.684C513.4 321.72 514.158 322.735 516.943 322.735H549.094C551.626 322.735 552.134 321.72 553.399 318.684L576.438 266.029H644.032L650.362 318.684C650.615 321.72 650.615 322.735 653.149 322.735H685.3C688.085 322.735 689.35 321.72 689.35 318.684L670.616 155.638C668.591 138.653 666.062 131.086 657.35 127.765Z" fill="#146EE6"/>
</svg>
