<svg width="16" height="16" viewBox="0 0 16 16" fill="none" xmlns="http://www.w3.org/2000/svg">
<g clip-path="url(#clip0_1537_6048)">
<path d="M3.42559 10.078C3.42559 10.9977 2.68229 11.741 1.7626 11.741C0.842916 11.741 0.0996094 10.9977 0.0996094 10.078C0.0996094 9.15835 0.842916 8.41504 1.7626 8.41504H3.42559V10.078ZM4.25709 10.078C4.25709 9.15835 5.0004 8.41504 5.92008 8.41504C6.83977 8.41504 7.58307 9.15835 7.58307 10.078V14.2355C7.58307 15.1552 6.83977 15.8985 5.92008 15.8985C5.0004 15.8985 4.25709 15.1552 4.25709 14.2355V10.078Z" fill="#E01E5A"/>
<path d="M5.92096 3.40118C5.00128 3.40118 4.25797 2.65787 4.25797 1.73819C4.25797 0.818502 5.00128 0.0751953 5.92096 0.0751953C6.84065 0.0751953 7.58395 0.818502 7.58395 1.73819V3.40118H5.92096ZM5.92096 4.24527C6.84065 4.24527 7.58395 4.98858 7.58395 5.90827C7.58395 6.82795 6.84065 7.57126 5.92096 7.57126H1.75088C0.831198 7.57126 0.0878906 6.82795 0.0878906 5.90827C0.0878906 4.98858 0.831198 4.24527 1.75088 4.24527H5.92096Z" fill="#36C5F0"/>
<path d="M12.5855 5.90827C12.5855 4.98858 13.3288 4.24527 14.2485 4.24527C15.1681 4.24527 15.9114 4.98858 15.9114 5.90827C15.9114 6.82795 15.1681 7.57126 14.2485 7.57126H12.5855V5.90827ZM11.754 5.90827C11.754 6.82795 11.0107 7.57126 10.091 7.57126C9.17129 7.57126 8.42798 6.82795 8.42798 5.90827V1.73819C8.42798 0.818502 9.17129 0.0751953 10.091 0.0751953C11.0107 0.0751953 11.754 0.818502 11.754 1.73819V5.90827Z" fill="#2EB67D"/>
<path d="M10.0907 12.5725C11.0104 12.5725 11.7537 13.3158 11.7537 14.2355C11.7537 15.1552 11.0104 15.8985 10.0907 15.8985C9.17104 15.8985 8.42773 15.1552 8.42773 14.2355V12.5725H10.0907ZM10.0907 11.741C9.17104 11.741 8.42773 10.9977 8.42773 10.078C8.42773 9.15835 9.17104 8.41504 10.0907 8.41504H14.2608C15.1805 8.41504 15.9238 9.15835 15.9238 10.078C15.9238 10.9977 15.1805 11.741 14.2608 11.741H10.0907Z" fill="#ECB22E"/>
</g>
<defs>
<clipPath id="clip0_1537_6048">
<rect width="16" height="16" fill="white"/>
</clipPath>
</defs>
</svg>
