<svg width="20" height="20" viewBox="0 0 20 20" fill="none" xmlns="http://www.w3.org/2000/svg">
<g clip-path="url(#clip0_463_767)">
<mask id="mask0_463_767" style="mask-type:luminance" maskUnits="userSpaceOnUse" x="0" y="0" width="20" height="20">
<path d="M20 0H0V20H20V0Z" fill="white"/>
</mask>
<g mask="url(#mask0_463_767)">
<path d="M4.28248 12.5975C4.28248 13.7471 3.35335 14.6762 2.20374 14.6762C1.05413 14.6762 0.125 13.7471 0.125 12.5975C0.125 11.4479 1.05413 10.5188 2.20374 10.5188H4.28248V12.5975ZM5.32185 12.5975C5.32185 11.4479 6.25099 10.5188 7.40059 10.5188C8.5502 10.5188 9.47933 11.4479 9.47933 12.5975V17.7944C9.47933 18.944 8.5502 19.8731 7.40059 19.8731C6.25099 19.8731 5.32185 18.944 5.32185 17.7944V12.5975Z" fill="#E01E5A"/>
<path d="M7.40071 4.25148C6.25111 4.25148 5.32197 3.32234 5.32197 2.17274C5.32197 1.02313 6.25111 0.0939941 7.40071 0.0939941C8.55032 0.0939941 9.47945 1.02313 9.47945 2.17274V4.25148H7.40071ZM7.40071 5.30659C8.55032 5.30659 9.47945 6.23572 9.47945 7.38534C9.47945 8.53494 8.55032 9.46407 7.40071 9.46407H2.18811C1.03851 9.46407 0.109375 8.53494 0.109375 7.38534C0.109375 6.23572 1.03851 5.30659 2.18811 5.30659H7.40071Z" fill="#36C5F0"/>
<path d="M15.7321 7.38534C15.7321 6.23572 16.6612 5.30659 17.8108 5.30659C18.9603 5.30659 19.8894 6.23572 19.8894 7.38534C19.8894 8.53494 18.9603 9.46407 17.8108 9.46407H15.7321V7.38534ZM14.6927 7.38534C14.6927 8.53494 13.7636 9.46407 12.6139 9.46407C11.4643 9.46407 10.5352 8.53494 10.5352 7.38534V2.17274C10.5352 1.02313 11.4643 0.0939941 12.6139 0.0939941C13.7636 0.0939941 14.6927 1.02313 14.6927 2.17274V7.38534Z" fill="#2EB67D"/>
<path d="M12.6139 15.7156C13.7635 15.7156 14.6926 16.6447 14.6926 17.7944C14.6926 18.944 13.7635 19.8731 12.6139 19.8731C11.4643 19.8731 10.5352 18.944 10.5352 17.7944V15.7156H12.6139ZM12.6139 14.6762C11.4643 14.6762 10.5352 13.7471 10.5352 12.5975C10.5352 11.4479 11.4643 10.5188 12.6139 10.5188H17.8265C18.9761 10.5188 19.9052 11.4479 19.9052 12.5975C19.9052 13.7471 18.9761 14.6762 17.8265 14.6762H12.6139Z" fill="#ECB22E"/>
</g>
</g>
<defs>
<clipPath id="clip0_463_767">
<rect width="20" height="20" fill="white"/>
</clipPath>
</defs>
</svg>
